Kung Fu Panda 2 2011 R6 LiNE XViD - CHOiCE


IMDB: http://www.imdb.com/title/tt1302011/           

RELEASE DATE: 5/26/11                        
SIZE: 1.36gb                                         LENGTH: 1H 23MN
SOURCE: V: ZJM A: ZJM Thanks                         HEIGHT: 288
SUBTITLES: NONE                                      WIDTH: 640


INFO:
Video
ID                               : 0
Format                           : MPEG-4 Visual
Format profile                   : Advanced Simple@L5
Format settings, BVOP            : 2
Format settings, QPel            : No
Format settings, GMC             : No warppoints
Format settings, Matrix          : Default (MPEG)
Muxing mode                      : Packed bitstream
Codec ID                         : XVID
Codec ID/Hint                    : XviD
Duration                         : 1h 23mn
Bit rate                         : 2 199 Kbps
Width                            : 640 pixels
Height                           : 288 pixels
Display aspect ratio             : 2.222
Frame rate                       : 29.970 fps
Color space                      : YUV
Chroma subsampling               : 4:2:0
Bit depth                        : 8 bits
Scan type                        : Progressive
Compression mode                 : Lossy
Bits/(Pixel*Frame)               : 0.398
Stream size                      : 1.29 GiB (94%)
Writing library                  : XviD 64

Audio
ID                               : 1
Format                           : MPEG Audio
Format version                   : Version 1
Format profile                   : Layer 3
Mode                             : Joint stereo
Mode extension                   : MS Stereo
Codec ID                         : 55
Codec ID/Hint                    : MP3
Duration                         : 1h 23mn
Bit rate mode                    : Constant
Bit rate                         : 128 Kbps
Channel(s)                       : 2 channels
Sampling rate                    : 44.1 KHz
Compression mode                 : Lossy
Stream size                      : 76.8 MiB (5%)
Alignment                        : Split accross interleaves
Interleave, duration             : 33 ms (1.00 video frame)

NOTES:
Source was very nice, but dont think it was a true dvdscr, yet it wasnt a cam either
End credits are half intact, but also have chinese subs hardcoded so we went with
the r6 tag from teh subs and picture quality 
Anyhow, audio was nice possibly line but was oos here and there so we made several cuts
and fixed that. Overall very nice release so enjoy or wait till retail.